<svg width="361" height="317" viewBox="0 0 361 317" fill="none" xmlns="http://www.w3.org/2000/svg">
<g clip-path="url(#clip0_71_35)">
<path d="M360.489 0.5H25.3728V316.5H360.489V0.5Z" fill="white" stroke="black"/>
<path d="M24.8728 158.5H360.034" stroke="black" stroke-dasharray="5 5"/>
<path d="M102.718 1V317" stroke="black" stroke-opacity="0.8" stroke-dasharray="2 2"/>
<path d="M193.431 0V316" stroke="black" stroke-dasharray="2 2"/>
<path d="M282.234 0V316" stroke="black" stroke-dasharray="2 2"/>
<path d="M32.4844 312.199C31.4144 312.199 30.5029 311.908 29.7501 311.325C28.9972 310.738 28.4219 309.888 28.0242 308.776C27.6265 307.658 27.4276 306.309 27.4276 304.727C27.4276 303.155 27.6265 301.813 28.0242 300.7C28.4267 299.583 29.0043 298.731 29.7572 298.143C30.5147 297.552 31.4238 297.256 32.4844 297.256C33.545 297.256 34.4518 297.552 35.2046 298.143C35.9622 298.731 36.5398 299.583 36.9376 300.7C37.34 301.813 37.5413 303.155 37.5413 304.727C37.5413 306.309 37.3424 307.658 36.9447 308.776C36.5469 309.888 35.9717 310.738 35.2188 311.325C34.466 311.908 33.5545 312.199 32.4844 312.199ZM32.4844 310.636C33.545 310.636 34.3689 310.125 34.956 309.102C35.5432 308.08 35.8367 306.621 35.8367 304.727C35.8367 303.468 35.7018 302.395 35.4319 301.51C35.1667 300.625 34.7832 299.95 34.2813 299.486C33.7842 299.022 33.1852 298.79 32.4844 298.79C31.4333 298.79 30.6118 299.308 30.02 300.345C29.4281 301.377 29.1322 302.838 29.1322 304.727C29.1322 305.987 29.2647 307.057 29.5299 307.938C29.795 308.818 30.1762 309.488 30.6734 309.947C31.1753 310.407 31.7789 310.636 32.4844 310.636ZM44.9844 312.199C43.9144 312.199 43.0029 311.908 42.2501 311.325C41.4972 310.738 40.9219 309.888 40.5242 308.776C40.1265 307.658 39.9276 306.309 39.9276 304.727C39.9276 303.155 40.1265 301.813 40.5242 300.7C40.9267 299.583 41.5043 298.731 42.2572 298.143C43.0147 297.552 43.9238 297.256 44.9844 297.256C46.045 297.256 46.9518 297.552 47.7046 298.143C48.4622 298.731 49.0398 299.583 49.4376 300.7C49.84 301.813 50.0413 303.155 50.0413 304.727C50.0413 306.309 49.8424 307.658 49.4447 308.776C49.0469 309.888 48.4717 310.738 47.7188 311.325C46.966 311.908 46.0545 312.199 44.9844 312.199ZM44.9844 310.636C46.045 310.636 46.8689 310.125 47.456 309.102C48.0432 308.08 48.3367 306.621 48.3367 304.727C48.3367 303.468 48.2018 302.395 47.9319 301.51C47.6667 300.625 47.2832 299.95 46.7813 299.486C46.2842 299.022 45.6852 298.79 44.9844 298.79C43.9333 298.79 43.1118 299.308 42.52 300.345C41.9281 301.377 41.6322 302.838 41.6322 304.727C41.6322 305.987 41.7647 307.057 42.0299 307.938C42.295 308.818 42.6762 309.488 43.1734 309.947C43.6753 310.407 44.2789 310.636 44.9844 310.636ZM53.9901 310.139C53.6397 310.139 53.3391 310.014 53.0881 309.763C52.8372 309.512 52.7117 309.211 52.7117 308.861C52.7117 308.51 52.8372 308.21 53.0881 307.959C53.3391 307.708 53.6397 307.582 53.9901 307.582C54.3405 307.582 54.6412 307.708 54.8921 307.959C55.1431 308.21 55.2685 308.51 55.2685 308.861C55.2685 309.093 55.2093 309.306 55.091 309.5C54.9773 309.694 54.8235 309.85 54.6293 309.969C54.4399 310.082 54.2269 310.139 53.9901 310.139ZM53.9901 302.781C53.6397 302.781 53.3391 302.656 53.0881 302.405C52.8372 302.154 52.7117 301.853 52.7117 301.503C52.7117 301.152 52.8372 300.852 53.0881 300.601C53.3391 300.35 53.6397 300.224 53.9901 300.224C54.3405 300.224 54.6412 300.35 54.8921 300.601C55.1431 300.852 55.2685 301.152 55.2685 301.503C55.2685 301.735 55.2093 301.948 55.091 302.142C54.9773 302.336 54.8235 302.492 54.6293 302.611C54.4399 302.724 54.2269 302.781 53.9901 302.781ZM62.9923 312.199C61.9222 312.199 61.0107 311.908 60.2579 311.325C59.505 310.738 58.9298 309.888 58.532 308.776C58.1343 307.658 57.9354 306.309 57.9354 304.727C57.9354 303.155 58.1343 301.813 58.532 300.7C58.9345 299.583 59.5121 298.731 60.265 298.143C61.0226 297.552 61.9317 297.256 62.9923 297.256C64.0529 297.256 64.9596 297.552 65.7124 298.143C66.47 298.731 67.0477 299.583 67.4454 300.7C67.8478 301.813 68.0491 303.155 68.0491 304.727C68.0491 306.309 67.8502 307.658 67.4525 308.776C67.0548 309.888 66.4795 310.738 65.7266 311.325C64.9738 311.908 64.0623 312.199 62.9923 312.199ZM62.9923 310.636C64.0529 310.636 64.8767 310.125 65.4638 309.102C66.051 308.08 66.3445 306.621 66.3445 304.727C66.3445 303.468 66.2096 302.395 65.9397 301.51C65.6745 300.625 65.291 299.95 64.7891 299.486C64.292 299.022 63.693 298.79 62.9923 298.79C61.9411 298.79 61.1196 299.308 60.5278 300.345C59.9359 301.377 59.64 302.838 59.64 304.727C59.64 305.987 59.7726 307.057 60.0377 307.938C60.3029 308.818 60.684 309.488 61.1812 309.947C61.6831 310.407 62.2868 310.636 62.9923 310.636ZM75.4923 312.199C74.4222 312.199 73.5107 311.908 72.7579 311.325C72.005 310.738 71.4298 309.888 71.032 308.776C70.6343 307.658 70.4354 306.309 70.4354 304.727C70.4354 303.155 70.6343 301.813 71.032 300.7C71.4345 299.583 72.0121 298.731 72.765 298.143C73.5226 297.552 74.4317 297.256 75.4923 297.256C76.5529 297.256 77.4596 297.552 78.2124 298.143C78.97 298.731 79.5477 299.583 79.9454 300.7C80.3478 301.813 80.5491 303.155 80.5491 304.727C80.5491 306.309 80.3502 307.658 79.9525 308.776C79.5548 309.888 78.9795 310.738 78.2266 311.325C77.4738 311.908 76.5623 312.199 75.4923 312.199ZM75.4923 310.636C76.5529 310.636 77.3767 310.125 77.9638 309.102C78.551 308.08 78.8445 306.621 78.8445 304.727C78.8445 303.468 78.7096 302.395 78.4397 301.51C78.1745 300.625 77.791 299.95 77.2891 299.486C76.792 299.022 76.193 298.79 75.4923 298.79C74.4411 298.79 73.6196 299.308 73.0278 300.345C72.4359 301.377 72.14 302.838 72.14 304.727C72.14 305.987 72.2726 307.057 72.5377 307.938C72.8029 308.818 73.184 309.488 73.6812 309.947C74.1831 310.407 74.7868 310.636 75.4923 310.636Z" fill="black"/>
<path d="M109.839 312.199C108.769 312.199 107.858 311.908 107.105 311.325C106.352 310.738 105.777 309.888 105.379 308.776C104.981 307.658 104.782 306.309 104.782 304.727C104.782 303.155 104.981 301.813 105.379 300.7C105.781 299.583 106.359 298.731 107.112 298.143C107.869 297.552 108.779 297.256 109.839 297.256C110.9 297.256 111.807 297.552 112.559 298.143C113.317 298.731 113.895 299.583 114.292 300.7C114.695 301.813 114.896 303.155 114.896 304.727C114.896 306.309 114.697 307.658 114.299 308.776C113.902 309.888 113.326 310.738 112.574 311.325C111.821 311.908 110.909 312.199 109.839 312.199ZM109.839 310.636C110.9 310.636 111.724 310.125 112.311 309.102C112.898 308.08 113.191 306.621 113.191 304.727C113.191 303.468 113.057 302.395 112.787 301.51C112.521 300.625 112.138 299.95 111.636 299.486C111.139 299.022 110.54 298.79 109.839 298.79C108.788 298.79 107.967 299.308 107.375 300.345C106.783 301.377 106.487 302.838 106.487 304.727C106.487 305.987 106.619 307.057 106.885 307.938C107.15 308.818 107.531 309.488 108.028 309.947C108.53 310.407 109.134 310.636 109.839 310.636ZM122.424 312.199C121.828 312.189 121.231 312.076 120.635 311.858C120.038 311.64 119.494 311.273 119.001 310.757C118.509 310.236 118.113 309.533 117.815 308.648C117.517 307.758 117.368 306.64 117.368 305.295C117.368 304.008 117.488 302.866 117.73 301.872C117.971 300.873 118.322 300.033 118.781 299.351C119.24 298.664 119.794 298.143 120.443 297.788C121.096 297.433 121.833 297.256 122.652 297.256C123.466 297.256 124.19 297.419 124.825 297.746C125.464 298.068 125.985 298.518 126.387 299.095C126.79 299.673 127.05 300.338 127.169 301.091H125.436C125.275 300.437 124.962 299.895 124.498 299.464C124.034 299.034 123.419 298.818 122.652 298.818C121.525 298.818 120.637 299.308 119.988 300.288C119.344 301.268 119.02 302.644 119.015 304.415H119.129C119.394 304.012 119.709 303.669 120.074 303.385C120.443 303.096 120.85 302.874 121.295 302.717C121.74 302.561 122.211 302.483 122.708 302.483C123.542 302.483 124.304 302.691 124.995 303.108C125.687 303.52 126.241 304.09 126.657 304.82C127.074 305.544 127.282 306.375 127.282 307.312C127.282 308.212 127.081 309.036 126.679 309.784C126.276 310.527 125.71 311.119 124.981 311.56C124.257 311.995 123.405 312.208 122.424 312.199ZM122.424 310.636C123.021 310.636 123.556 310.487 124.03 310.189C124.508 309.891 124.884 309.491 125.159 308.989C125.438 308.487 125.578 307.928 125.578 307.312C125.578 306.711 125.443 306.164 125.173 305.672C124.908 305.175 124.541 304.779 124.072 304.486C123.608 304.192 123.078 304.045 122.481 304.045C122.031 304.045 121.612 304.135 121.224 304.315C120.836 304.491 120.495 304.732 120.201 305.04C119.913 305.348 119.685 305.7 119.52 306.098C119.354 306.491 119.271 306.905 119.271 307.341C119.271 307.919 119.406 308.458 119.676 308.96C119.95 309.462 120.324 309.867 120.798 310.175C121.276 310.482 121.818 310.636 122.424 310.636ZM131.325 310.139C130.975 310.139 130.674 310.014 130.423 309.763C130.172 309.512 130.047 309.211 130.047 308.861C130.047 308.51 130.172 308.21 130.423 307.959C130.674 307.708 130.975 307.582 131.325 307.582C131.676 307.582 131.976 307.708 132.227 307.959C132.478 308.21 132.604 308.51 132.604 308.861C132.604 309.093 132.545 309.306 132.426 309.5C132.313 309.694 132.159 309.85 131.965 309.969C131.775 310.082 131.562 310.139 131.325 310.139ZM131.325 302.781C130.975 302.781 130.674 302.656 130.423 302.405C130.172 302.154 130.047 301.853 130.047 301.503C130.047 301.152 130.172 300.852 130.423 300.601C130.674 300.35 130.975 300.224 131.325 300.224C131.676 300.224 131.976 300.35 132.227 300.601C132.478 300.852 132.604 301.152 132.604 301.503C132.604 301.735 132.545 301.948 132.426 302.142C132.313 302.336 132.159 302.492 131.965 302.611C131.775 302.724 131.562 302.781 131.325 302.781ZM140.327 312.199C139.257 312.199 138.346 311.908 137.593 311.325C136.84 310.738 136.265 309.888 135.867 308.776C135.469 307.658 135.271 306.309 135.271 304.727C135.271 303.155 135.469 301.813 135.867 300.7C136.27 299.583 136.847 298.731 137.6 298.143C138.358 297.552 139.267 297.256 140.327 297.256C141.388 297.256 142.295 297.552 143.048 298.143C143.805 298.731 144.383 299.583 144.781 300.7C145.183 301.813 145.384 303.155 145.384 304.727C145.384 306.309 145.185 307.658 144.788 308.776C144.39 309.888 143.815 310.738 143.062 311.325C142.309 311.908 141.398 312.199 140.327 312.199ZM140.327 310.636C141.388 310.636 142.212 310.125 142.799 309.102C143.386 308.08 143.68 306.621 143.68 304.727C143.68 303.468 143.545 302.395 143.275 301.51C143.01 300.625 142.626 299.95 142.124 299.486C141.627 299.022 141.028 298.79 140.327 298.79C139.276 298.79 138.455 299.308 137.863 300.345C137.271 301.377 136.975 302.838 136.975 304.727C136.975 305.987 137.108 307.057 137.373 307.938C137.638 308.818 138.019 309.488 138.516 309.947C139.018 310.407 139.622 310.636 140.327 310.636ZM152.827 312.199C151.757 312.199 150.846 311.908 150.093 311.325C149.34 310.738 148.765 309.888 148.367 308.776C147.969 307.658 147.771 306.309 147.771 304.727C147.771 303.155 147.969 301.813 148.367 300.7C148.77 299.583 149.347 298.731 150.1 298.143C150.858 297.552 151.767 297.256 152.827 297.256C153.888 297.256 154.795 297.552 155.548 298.143C156.305 298.731 156.883 299.583 157.281 300.7C157.683 301.813 157.884 303.155 157.884 304.727C157.884 306.309 157.685 307.658 157.288 308.776C156.89 309.888 156.315 310.738 155.562 311.325C154.809 311.908 153.898 312.199 152.827 312.199ZM152.827 310.636C153.888 310.636 154.712 310.125 155.299 309.102C155.886 308.08 156.18 306.621 156.18 304.727C156.18 303.468 156.045 302.395 155.775 301.51C155.51 300.625 155.126 299.95 154.624 299.486C154.127 299.022 153.528 298.79 152.827 298.79C151.776 298.79 150.955 299.308 150.363 300.345C149.771 301.377 149.475 302.838 149.475 304.727C149.475 305.987 149.608 307.057 149.873 307.938C150.138 308.818 150.519 309.488 151.016 309.947C151.518 310.407 152.122 310.636 152.827 310.636Z" fill="black"/>
<path d="M201.754 297.455V312H199.993V299.301H199.907L196.356 301.659V299.869L199.993 297.455H201.754ZM205.937 312V310.722L210.738 305.466C211.302 304.85 211.766 304.315 212.13 303.861C212.495 303.402 212.765 302.971 212.94 302.568C213.12 302.161 213.21 301.735 213.21 301.29C213.21 300.778 213.087 300.336 212.841 299.962C212.599 299.588 212.268 299.299 211.846 299.095C211.425 298.892 210.951 298.79 210.426 298.79C209.867 298.79 209.379 298.906 208.963 299.138C208.551 299.365 208.231 299.685 208.004 300.097C207.781 300.509 207.67 300.991 207.67 301.545H205.994C205.994 300.693 206.191 299.945 206.584 299.301C206.977 298.657 207.512 298.155 208.189 297.795C208.87 297.436 209.635 297.256 210.483 297.256C211.335 297.256 212.09 297.436 212.748 297.795C213.406 298.155 213.923 298.641 214.297 299.251C214.671 299.862 214.858 300.542 214.858 301.29C214.858 301.825 214.761 302.348 214.566 302.859C214.377 303.366 214.046 303.932 213.572 304.557C213.103 305.177 212.452 305.935 211.619 306.83L208.352 310.324V310.438H215.113V312H205.937ZM219.297 310.139C218.946 310.139 218.646 310.014 218.395 309.763C218.144 309.512 218.018 309.211 218.018 308.861C218.018 308.51 218.144 308.21 218.395 307.959C218.646 307.708 218.946 307.582 219.297 307.582C219.647 307.582 219.948 307.708 220.199 307.959C220.45 308.21 220.575 308.51 220.575 308.861C220.575 309.093 220.516 309.306 220.397 309.5C220.284 309.694 220.13 309.85 219.936 309.969C219.746 310.082 219.533 310.139 219.297 310.139ZM219.297 302.781C218.946 302.781 218.646 302.656 218.395 302.405C218.144 302.154 218.018 301.853 218.018 301.503C218.018 301.152 218.144 300.852 218.395 300.601C218.646 300.35 218.946 300.224 219.297 300.224C219.647 300.224 219.948 300.35 220.199 300.601C220.45 300.852 220.575 301.152 220.575 301.503C220.575 301.735 220.516 301.948 220.397 302.142C220.284 302.336 220.13 302.492 219.936 302.611C219.746 302.724 219.533 302.781 219.297 302.781ZM228.299 312.199C227.229 312.199 226.317 311.908 225.564 311.325C224.812 310.738 224.236 309.888 223.838 308.776C223.441 307.658 223.242 306.309 223.242 304.727C223.242 303.155 223.441 301.813 223.838 300.7C224.241 299.583 224.819 298.731 225.571 298.143C226.329 297.552 227.238 297.256 228.299 297.256C229.359 297.256 230.266 297.552 231.019 298.143C231.776 298.731 232.354 299.583 232.752 300.7C233.154 301.813 233.356 303.155 233.356 304.727C233.356 306.309 233.157 307.658 232.759 308.776C232.361 309.888 231.786 310.738 231.033 311.325C230.28 311.908 229.369 312.199 228.299 312.199ZM228.299 310.636C229.359 310.636 230.183 310.125 230.77 309.102C231.357 308.08 231.651 306.621 231.651 304.727C231.651 303.468 231.516 302.395 231.246 301.51C230.981 300.625 230.597 299.95 230.096 299.486C229.598 299.022 228.999 298.79 228.299 298.79C227.248 298.79 226.426 299.308 225.834 300.345C225.242 301.377 224.946 302.838 224.946 304.727C224.946 305.987 225.079 307.057 225.344 307.938C225.609 308.818 225.99 309.488 226.488 309.947C226.99 310.407 227.593 310.636 228.299 310.636ZM240.799 312.199C239.729 312.199 238.817 311.908 238.064 311.325C237.312 310.738 236.736 309.888 236.338 308.776C235.941 307.658 235.742 306.309 235.742 304.727C235.742 303.155 235.941 301.813 236.338 300.7C236.741 299.583 237.319 298.731 238.071 298.143C238.829 297.552 239.738 297.256 240.799 297.256C241.859 297.256 242.766 297.552 243.519 298.143C244.276 298.731 244.854 299.583 245.252 300.7C245.654 301.813 245.856 303.155 245.856 304.727C245.856 306.309 245.657 307.658 245.259 308.776C244.861 309.888 244.286 310.738 243.533 311.325C242.78 311.908 241.869 312.199 240.799 312.199ZM240.799 310.636C241.859 310.636 242.683 310.125 243.27 309.102C243.857 308.08 244.151 306.621 244.151 304.727C244.151 303.468 244.016 302.395 243.746 301.51C243.481 300.625 243.097 299.95 242.596 299.486C242.098 299.022 241.499 298.79 240.799 298.79C239.748 298.79 238.926 299.308 238.334 300.345C237.742 301.377 237.446 302.838 237.446 304.727C237.446 305.987 237.579 307.057 237.844 307.938C238.109 308.818 238.49 309.488 238.988 309.947C239.49 310.407 240.093 310.636 240.799 310.636Z" fill="black"/>
<path d="M289.495 297.455V312H287.734V299.301H287.649L284.097 301.659V299.869L287.734 297.455H289.495ZM298.337 312.199C297.362 312.199 296.5 312.026 295.752 311.68C295.009 311.33 294.429 310.849 294.012 310.239C293.596 309.623 293.39 308.922 293.394 308.136C293.39 307.521 293.51 306.953 293.756 306.432C294.003 305.906 294.339 305.468 294.765 305.118C295.196 304.763 295.676 304.538 296.207 304.443V304.358C295.511 304.178 294.957 303.787 294.545 303.186C294.133 302.58 293.929 301.891 293.934 301.119C293.929 300.381 294.116 299.72 294.495 299.138C294.874 298.555 295.395 298.096 296.058 297.76C296.725 297.424 297.485 297.256 298.337 297.256C299.18 297.256 299.933 297.424 300.596 297.76C301.259 298.096 301.78 298.555 302.158 299.138C302.542 299.72 302.736 300.381 302.741 301.119C302.736 301.891 302.525 302.58 302.109 303.186C301.697 303.787 301.15 304.178 300.468 304.358V304.443C300.994 304.538 301.467 304.763 301.889 305.118C302.31 305.468 302.646 305.906 302.897 306.432C303.148 306.953 303.276 307.521 303.281 308.136C303.276 308.922 303.063 309.623 302.641 310.239C302.225 310.849 301.645 311.33 300.901 311.68C300.163 312.026 299.308 312.199 298.337 312.199ZM298.337 310.636C298.996 310.636 299.564 310.53 300.042 310.317C300.52 310.104 300.89 309.803 301.15 309.415C301.41 309.027 301.543 308.572 301.548 308.051C301.543 307.502 301.401 307.017 301.122 306.595C300.842 306.174 300.461 305.842 299.978 305.601C299.5 305.359 298.953 305.239 298.337 305.239C297.717 305.239 297.163 305.359 296.676 305.601C296.193 305.842 295.811 306.174 295.532 306.595C295.257 307.017 295.122 307.502 295.127 308.051C295.122 308.572 295.248 309.027 295.504 309.415C295.764 309.803 296.136 310.104 296.619 310.317C297.102 310.53 297.675 310.636 298.337 310.636ZM298.337 303.733C298.858 303.733 299.32 303.629 299.722 303.42C300.13 303.212 300.449 302.921 300.681 302.547C300.913 302.173 301.032 301.735 301.036 301.233C301.032 300.741 300.916 300.312 300.688 299.947C300.461 299.578 300.146 299.294 299.744 299.095C299.341 298.892 298.872 298.79 298.337 298.79C297.793 298.79 297.317 298.892 296.91 299.095C296.503 299.294 296.188 299.578 295.965 299.947C295.743 300.312 295.634 300.741 295.639 301.233C295.634 301.735 295.745 302.173 295.972 302.547C296.204 302.921 296.524 303.212 296.931 303.42C297.338 303.629 297.807 303.733 298.337 303.733ZM307.253 310.139C306.902 310.139 306.602 310.014 306.351 309.763C306.1 309.512 305.974 309.211 305.974 308.861C305.974 308.51 306.1 308.21 306.351 307.959C306.602 307.708 306.902 307.582 307.253 307.582C307.603 307.582 307.904 307.708 308.155 307.959C308.406 308.21 308.531 308.51 308.531 308.861C308.531 309.093 308.472 309.306 308.353 309.5C308.24 309.694 308.086 309.85 307.892 309.969C307.702 310.082 307.489 310.139 307.253 310.139ZM307.253 302.781C306.902 302.781 306.602 302.656 306.351 302.405C306.1 302.154 305.974 301.853 305.974 301.503C305.974 301.152 306.1 300.852 306.351 300.601C306.602 300.35 306.902 300.224 307.253 300.224C307.603 300.224 307.904 300.35 308.155 300.601C308.406 300.852 308.531 301.152 308.531 301.503C308.531 301.735 308.472 301.948 308.353 302.142C308.24 302.336 308.086 302.492 307.892 302.611C307.702 302.724 307.489 302.781 307.253 302.781ZM316.255 312.199C315.185 312.199 314.273 311.908 313.52 311.325C312.767 310.738 312.192 309.888 311.794 308.776C311.397 307.658 311.198 306.309 311.198 304.727C311.198 303.155 311.397 301.813 311.794 300.7C312.197 299.583 312.775 298.731 313.527 298.143C314.285 297.552 315.194 297.256 316.255 297.256C317.315 297.256 318.222 297.552 318.975 298.143C319.732 298.731 320.31 299.583 320.708 300.7C321.11 301.813 321.312 303.155 321.312 304.727C321.312 306.309 321.113 307.658 320.715 308.776C320.317 309.888 319.742 310.738 318.989 311.325C318.236 311.908 317.325 312.199 316.255 312.199ZM316.255 310.636C317.315 310.636 318.139 310.125 318.726 309.102C319.313 308.08 319.607 306.621 319.607 304.727C319.607 303.468 319.472 302.395 319.202 301.51C318.937 300.625 318.553 299.95 318.052 299.486C317.554 299.022 316.955 298.79 316.255 298.79C315.204 298.79 314.382 299.308 313.79 300.345C313.198 301.377 312.902 302.838 312.902 304.727C312.902 305.987 313.035 307.057 313.3 307.938C313.565 308.818 313.946 309.488 314.444 309.947C314.946 310.407 315.549 310.636 316.255 310.636ZM328.755 312.199C327.685 312.199 326.773 311.908 326.02 311.325C325.267 310.738 324.692 309.888 324.294 308.776C323.897 307.658 323.698 306.309 323.698 304.727C323.698 303.155 323.897 301.813 324.294 300.7C324.697 299.583 325.275 298.731 326.027 298.143C326.785 297.552 327.694 297.256 328.755 297.256C329.815 297.256 330.722 297.552 331.475 298.143C332.232 298.731 332.81 299.583 333.208 300.7C333.61 301.813 333.812 303.155 333.812 304.727C333.812 306.309 333.613 307.658 333.215 308.776C332.817 309.888 332.242 310.738 331.489 311.325C330.736 311.908 329.825 312.199 328.755 312.199ZM328.755 310.636C329.815 310.636 330.639 310.125 331.226 309.102C331.813 308.08 332.107 306.621 332.107 304.727C332.107 303.468 331.972 302.395 331.702 301.51C331.437 300.625 331.053 299.95 330.552 299.486C330.054 299.022 329.455 298.79 328.755 298.79C327.704 298.79 326.882 299.308 326.29 300.345C325.698 301.377 325.402 302.838 325.402 304.727C325.402 305.987 325.535 307.057 325.8 307.938C326.065 308.818 326.446 309.488 326.944 309.947C327.446 310.407 328.049 310.636 328.755 310.636Z" fill="black"/>
<path d="M25.4038 223.735L69.3281 146.735" stroke="#DC0000"/>
<path d="M68.8973 146.51L95.6339 152.51" stroke="#DC0000"/>
<path d="M95.0925 152.765L121.829 97.7648" stroke="#DC0000"/>
<path d="M121.79 97.8437L132.294 132.844" stroke="#DC0000"/>
<path d="M132.331 132.768L160.022 74.7681" stroke="#DC0000"/>
<path d="M160.002 74.9107L172.415 149.911" stroke="#DC0000"/>
<path d="M172.422 149.798L187.7 111.798" stroke="#DC0000"/>
<path d="M187.656 111.791L204.844 152.791" stroke="#DC0000"/>
<path d="M204.288 152.511L265.4 138.511" stroke="#DC0000"/>
<path d="M265.098 138.704L308.068 74.7035" stroke="#DC0000"/>
<path d="M307.612 74.9643L341.41 181.837" stroke="#DC0000"/>
<path d="M341.134 181.541L360.232 190.541" stroke="#DC0000"/>
<path d="M24.8728 223.5H360.045" stroke="#940000"/>
<path d="M25.8304 223H360.048" stroke="#00A3FF" stroke-width="2"/>
<path d="M26.7825 74H361" stroke="#00A3FF" stroke-width="2"/>
<path d="M6.807 228.119C6.44904 228.114 6.09109 228.045 5.73313 227.915C5.37518 227.784 5.04847 227.564 4.75302 227.254C4.45756 226.942 4.22035 226.52 4.04137 225.989C3.86239 225.455 3.7729 224.784 3.7729 223.977C3.7729 223.205 3.84535 222.52 3.99023 221.923C4.13512 221.324 4.34535 220.82 4.62092 220.411C4.89648 219.999 5.22887 219.686 5.61808 219.473C6.01012 219.26 6.45188 219.153 6.94336 219.153C7.432 219.153 7.86665 219.251 8.24734 219.447C8.63086 219.641 8.94336 219.911 9.18484 220.257C9.42631 220.604 9.58256 221.003 9.65359 221.455H8.61381C8.51722 221.062 8.32972 220.737 8.05131 220.479C7.7729 220.22 7.40359 220.091 6.94336 220.091C6.26722 220.091 5.73455 220.385 5.34535 220.973C4.95898 221.561 4.76438 222.386 4.76154 223.449H4.82972C4.98881 223.207 5.17773 223.001 5.39648 222.831C5.61808 222.658 5.86239 222.524 6.12944 222.43C6.39648 222.337 6.67915 222.29 6.97745 222.29C7.47745 222.29 7.93484 222.415 8.34961 222.665C8.76438 222.912 9.09677 223.254 9.34677 223.692C9.59677 224.126 9.72177 224.625 9.72177 225.188C9.72177 225.727 9.60103 226.222 9.35955 226.67C9.11808 227.116 8.77859 227.472 8.34109 227.736C7.90643 227.997 7.39506 228.125 6.807 228.119ZM6.807 227.182C7.16495 227.182 7.48597 227.092 7.77006 226.913C8.057 226.734 8.28285 226.494 8.44762 226.193C8.61523 225.892 8.69904 225.557 8.69904 225.188C8.69904 224.827 8.61808 224.499 8.45614 224.203C8.29705 223.905 8.07688 223.668 7.79563 223.491C7.51722 223.315 7.19904 223.227 6.84109 223.227C6.5712 223.227 6.31978 223.281 6.08683 223.389C5.85387 223.494 5.64933 223.639 5.47319 223.824C5.29989 224.009 5.16353 224.22 5.0641 224.459C4.96467 224.695 4.91495 224.943 4.91495 225.205C4.91495 225.551 4.99592 225.875 5.15785 226.176C5.32262 226.477 5.54705 226.72 5.83114 226.905C6.11808 227.089 6.44336 227.182 6.807 227.182ZM14.2441 228.119C13.6021 228.119 13.0552 227.945 12.6035 227.595C12.1518 227.243 11.8066 226.733 11.568 226.065C11.3294 225.395 11.21 224.585 11.21 223.636C11.21 222.693 11.3294 221.888 11.568 221.22C11.8095 220.55 12.1561 220.038 12.6078 219.686C13.0623 219.331 13.6078 219.153 14.2441 219.153C14.8805 219.153 15.4245 219.331 15.8762 219.686C16.3308 220.038 16.6774 220.55 16.916 221.22C17.1575 221.888 17.2782 222.693 17.2782 223.636C17.2782 224.585 17.1589 225.395 16.9203 226.065C16.6816 226.733 16.3365 227.243 15.8848 227.595C15.4331 227.945 14.8862 228.119 14.2441 228.119ZM14.2441 227.182C14.8805 227.182 15.3748 226.875 15.7271 226.261C16.0794 225.648 16.2555 224.773 16.2555 223.636C16.2555 222.881 16.1745 222.237 16.0126 221.706C15.8535 221.175 15.6234 220.77 15.3223 220.491C15.024 220.213 14.6646 220.074 14.2441 220.074C13.6135 220.074 13.1206 220.385 12.7654 221.007C12.4103 221.626 12.2328 222.503 12.2328 223.636C12.2328 224.392 12.3123 225.034 12.4714 225.562C12.6305 226.091 12.8592 226.493 13.1575 226.768C13.4586 227.044 13.8208 227.182 14.2441 227.182Z" fill="black"/>
<path d="M4.18253 153.273V162H3.12571V154.381H3.07457L0.943893 155.795V154.722L3.12571 153.273H4.18253ZM9.53906 162.119C8.89702 162.119 8.35014 161.945 7.89844 161.595C7.44673 161.243 7.10156 160.733 6.86293 160.065C6.62429 159.395 6.50497 158.585 6.50497 157.636C6.50497 156.693 6.62429 155.888 6.86293 155.22C7.1044 154.55 7.45099 154.038 7.9027 153.686C8.35724 153.331 8.9027 153.153 9.53906 153.153C10.1754 153.153 10.7195 153.331 11.1712 153.686C11.6257 154.038 11.9723 154.55 12.2109 155.22C12.4524 155.888 12.5732 156.693 12.5732 157.636C12.5732 158.585 12.4538 159.395 12.2152 160.065C11.9766 160.733 11.6314 161.243 11.1797 161.595C10.728 161.945 10.1811 162.119 9.53906 162.119ZM9.53906 161.182C10.1754 161.182 10.6697 160.875 11.022 160.261C11.3743 159.648 11.5504 158.773 11.5504 157.636C11.5504 156.881 11.4695 156.237 11.3075 155.706C11.1484 155.175 10.9183 154.77 10.6172 154.491C10.3189 154.213 9.95952 154.074 9.53906 154.074C8.90838 154.074 8.41548 154.385 8.06037 155.007C7.70526 155.626 7.5277 156.503 7.5277 157.636C7.5277 158.392 7.60724 159.034 7.76634 159.562C7.92543 160.091 8.15412 160.493 8.45241 160.768C8.75355 161.044 9.11577 161.182 9.53906 161.182ZM17.0391 162.119C16.397 162.119 15.8501 161.945 15.3984 161.595C14.9467 161.243 14.6016 160.733 14.3629 160.065C14.1243 159.395 14.005 158.585 14.005 157.636C14.005 156.693 14.1243 155.888 14.3629 155.22C14.6044 154.55 14.951 154.038 15.4027 153.686C15.8572 153.331 16.4027 153.153 17.0391 153.153C17.6754 153.153 18.2195 153.331 18.6712 153.686C19.1257 154.038 19.4723 154.55 19.7109 155.22C19.9524 155.888 20.0732 156.693 20.0732 157.636C20.0732 158.585 19.9538 159.395 19.7152 160.065C19.4766 160.733 19.1314 161.243 18.6797 161.595C18.228 161.945 17.6811 162.119 17.0391 162.119ZM17.0391 161.182C17.6754 161.182 18.1697 160.875 18.522 160.261C18.8743 159.648 19.0504 158.773 19.0504 157.636C19.0504 156.881 18.9695 156.237 18.8075 155.706C18.6484 155.175 18.4183 154.77 18.1172 154.491C17.8189 154.213 17.4595 154.074 17.0391 154.074C16.4084 154.074 15.9155 154.385 15.5604 155.007C15.2053 155.626 15.0277 156.503 15.0277 157.636C15.0277 158.392 15.1072 159.034 15.2663 159.562C15.4254 160.091 15.6541 160.493 15.9524 160.768C16.2536 161.044 16.6158 161.182 17.0391 161.182Z" fill="black"/>
<path d="M4.08292 70.2727V79H3.0261V71.3807H2.97496L0.844284 72.7955V71.7216L3.0261 70.2727H4.08292ZM6.38832 77.2102V76.3409L10.2235 70.2727H10.8542V71.6193H10.4281L7.53036 76.2045V76.2727H12.6951V77.2102H6.38832ZM10.4963 79V76.946V76.5412V70.2727H11.502V79H10.4963ZM17.1387 79.1193C16.4966 79.1193 15.9498 78.9446 15.498 78.5952C15.0463 78.2429 14.7012 77.733 14.4625 77.0653C14.2239 76.3949 14.1046 75.5852 14.1046 74.6364C14.1046 73.6932 14.2239 72.8878 14.4625 72.2202C14.704 71.5497 15.0506 71.0384 15.5023 70.6861C15.9569 70.331 16.5023 70.1534 17.1387 70.1534C17.775 70.1534 18.3191 70.331 18.7708 70.6861C19.2253 71.0384 19.5719 71.5497 19.8105 72.2202C20.052 72.8878 20.1728 73.6932 20.1728 74.6364C20.1728 75.5852 20.0534 76.3949 19.8148 77.0653C19.5762 77.733 19.231 78.2429 18.7793 78.5952C18.3276 78.9446 17.7807 79.1193 17.1387 79.1193ZM17.1387 78.1818C17.775 78.1818 18.2694 77.875 18.6216 77.2614C18.9739 76.6477 19.15 75.7727 19.15 74.6364C19.15 73.8807 19.0691 73.2372 18.9071 72.706C18.748 72.1747 18.5179 71.7699 18.2168 71.4915C17.9185 71.2131 17.5591 71.0739 17.1387 71.0739C16.508 71.0739 16.0151 71.3849 15.66 72.0071C15.3049 72.6264 15.1273 73.5028 15.1273 74.6364C15.1273 75.392 15.2069 76.0341 15.3659 76.5625C15.525 77.0909 15.7537 77.4929 16.052 77.7685C16.3532 78.044 16.7154 78.1818 17.1387 78.1818Z" fill="black"/>
</g>
<defs>
<clipPath id="clip0_71_35">
<rect width="361" height="317" fill="white"/>
</clipPath>
</defs>
</svg>
