<svg width="74" height="74" viewBox="0 0 74 74" fill="none" xmlns="http://www.w3.org/2000/svg">
<g clip-path="url(#clip0_13_7)">
<path d="M22.5677 34.07C23.3896 37.1374 21.5692 40.2903 18.5018 41.1123C15.4344 41.9342 12.2814 40.1138 11.4595 37.0464C10.6376 33.979 12.458 30.826 15.5254 30.0041C18.5928 29.1822 21.7458 31.0025 22.5677 34.07Z" fill="#81E1FF" stroke="#00A3FF"/>
<path d="M30.8462 21.499C31.6681 24.5664 29.8477 27.7194 26.7803 28.5413C23.7129 29.3632 20.5599 27.5428 19.738 24.4754C18.9161 21.408 20.7365 18.255 23.8039 17.4331C26.8713 16.6112 30.0243 18.4316 30.8462 21.499Z" fill="#81E1FF" stroke="#00A3FF"/>
<path d="M45.3351 17.6167C46.157 20.6841 44.3366 23.8371 41.2692 24.659C38.2018 25.4809 35.0488 23.6605 34.2269 20.5931C33.405 17.5257 35.2254 14.3727 38.2928 13.5508C41.3602 12.7289 44.5132 14.5493 45.3351 17.6167Z" fill="#81E1FF" stroke="#00A3FF"/>
<path d="M58.7899 24.3643C59.6118 27.4317 57.7915 30.5846 54.724 31.4065C51.6566 32.2285 48.5037 30.4081 47.6818 27.3407C46.8598 24.2732 48.6802 21.1203 51.7476 20.2984C54.8151 19.4765 57.968 21.2968 58.7899 24.3643Z" fill="#81E1FF" stroke="#00A3FF"/>
<path d="M51.2045 40.6054L51.2208 40.6166L51.238 40.6265C51.4786 40.7654 51.721 40.9042 51.9642 41.0436C53.7709 42.0784 55.6263 43.1411 57.1543 44.468C58.8655 45.9542 60.1209 47.7355 60.3959 50.1192C60.343 52.6131 59.2953 55.3257 56.547 56.7588C56.2009 56.9247 55.5821 57.0739 54.6905 57.223C53.95 57.3468 53.0673 57.464 52.0709 57.5964C51.882 57.6215 51.689 57.6471 51.4922 57.6734C49.033 58.0022 46.0073 58.4335 42.9789 59.245L42.5443 59.3614C39.5154 60.173 36.6805 61.3187 34.3877 62.2663C34.2253 62.3335 34.0658 62.3995 33.9093 62.4643C32.9557 62.8592 32.1123 63.2085 31.3941 63.4761C30.5449 63.7924 29.9351 63.9688 29.5543 63.9922C26.4547 64.1269 24.1971 62.3234 22.8986 60.1683C21.9598 57.9757 22.1632 55.8096 22.9061 53.6682C23.5686 51.7586 24.6432 49.9122 25.6894 48.1146C25.8315 47.8703 25.9731 47.627 26.1131 47.3846L26.1223 47.3687L26.1303 47.3521C27.0702 45.4067 27.9019 43.6481 28.7571 41.84C29.2352 40.8293 29.7206 39.803 30.2363 38.72C31.0114 37.1337 32.0148 35.5543 33.4368 34.5978L33.4368 34.5979L33.4444 34.5926C33.6622 34.4402 33.8841 34.311 34.1101 34.2041L34.1101 34.2041L34.1147 34.2019C34.6601 33.9372 35.2652 33.7735 35.9012 33.6031C36.5351 33.4332 37.146 33.2707 37.7274 33.2099C37.9749 33.1899 38.23 33.191 38.4929 33.214L38.4929 33.214L38.5021 33.2147C40.2143 33.3321 41.8986 34.1945 43.3326 35.1828L43.3352 35.1845C45.119 36.3974 46.7123 37.5002 48.3544 38.6366C49.2751 39.2738 50.2111 39.9216 51.2045 40.6054Z" fill="#81E1FF" stroke="#00A3FF"/>
</g>
<defs>
<clipPath id="clip0_13_7">
<rect width="60" height="60" fill="white" transform="translate(0 15.5291) rotate(-15)"/>
</clipPath>
</defs>
</svg>
